<svg width="60" height="61" viewBox="0 0 60 61" fill="none" xmlns="http://www.w3.org/2000/svg">
<path d="M26.2851 52.4578C26.2851 52.4578 33.0882 56.6087 39.38 52.2417C45.8308 48.1501 50.6801 38.7404 47.0936 21.716C43.2318 4.85063 18.3651 1.21404 10.8697 18.7611C2.28411 39.5081 26.2851 52.4578 26.2851 52.4578Z" fill="#01D4E4"/>
<g style="mix-blend-mode:multiply">
<path d="M47.9126 28.221C49.0713 40.4044 44.8039 47.6418 39.4548 51.0973C33.2794 55.0299 26.6353 51.1544 26.6353 51.1544C26.6353 51.1544 3.06878 38.3213 11.4216 18.4432C14.4282 11.5663 20.0528 7.95179 26.0068 7.45193C19.7774 8.11079 13.7184 11.6089 10.5953 18.9202C1.85073 39.3918 26.0108 52.6168 26.0108 52.6168C26.0108 52.6168 32.8138 56.7677 39.1056 52.4007C44.7302 48.7862 49.5483 41.2306 47.9126 28.221Z" fill="#01D4E4"/>
</g>
<path opacity="0.42" d="M23.249 42.0506C25.6105 44.6508 29.1058 45.3228 31.0559 43.5517C33.0061 41.7806 32.6726 38.2369 30.3111 35.6367C27.9496 33.0365 24.4542 32.3644 22.5041 34.1355C20.5539 35.9067 20.8874 39.4504 23.249 42.0506Z" fill="#A7A9CA"/>
<path opacity="0.42" d="M39.6969 42.8486C41.9602 44.197 45.2525 42.8437 47.0503 39.8259C48.8482 36.8081 48.4708 33.2686 46.2075 31.9202C43.9442 30.5718 40.6519 31.9251 38.8541 34.9429C37.0562 37.9607 37.4336 41.5002 39.6969 42.8486Z" fill="#A7A9CA"/>
<path d="M24.0049 41.9783C26.3664 44.5785 29.8617 45.2506 31.8119 43.4795C33.762 41.7083 33.4285 38.1646 31.067 35.5644C28.7055 32.9642 25.2101 32.2921 23.26 34.0632C21.3098 35.8344 21.6434 39.3781 24.0049 41.9783Z" fill="white"/>
<path opacity="0.16" d="M32.8925 39.0957C32.9778 40.5154 32.6285 41.8186 31.9613 42.571C30.3515 44.2349 27.3106 43.4202 25.3287 41.2595C23.3468 39.0988 23.0174 35.9841 24.6273 34.3202C26.2371 32.6564 29.278 33.4711 31.2598 35.6318C31.5779 36.1826 32.1713 36.5745 32.2139 37.2843C31.8959 36.7335 31.4189 35.9072 30.8255 35.5154C28.5256 32.8039 24.9338 32.3071 23.0486 34.13C21.1633 35.9529 21.3764 39.5021 23.6763 42.2135C25.9762 44.925 29.5679 45.4218 31.4531 43.5989C32.9466 42.3694 33.1368 40.7908 32.8925 39.0957Z" fill="#A7A9CA"/>
<path d="M40.5016 42.721C42.7649 44.0694 46.0572 42.716 47.855 39.6983C49.6529 36.6805 49.2755 33.141 47.0122 31.7926C44.7489 30.4442 41.4566 31.7975 39.6588 34.8153C37.8609 37.8331 38.2382 41.3726 40.5016 42.721Z" fill="white"/>
<path d="M22.8772 31.2907C22.8772 31.2907 24.2116 29.7858 27.8772 29.1383C31.5427 28.4909 27.6215 24.8794 23.6068 26.8301C20.0265 28.8972 21.2674 32.9546 22.8772 31.2907Z" fill="#108F9B"/>
<path d="M48.0715 28.4965C48.0715 28.4965 46.8421 27.0031 43.3668 26.0719C39.7324 24.8653 44.2553 21.8866 47.8159 24.2375C51.3764 26.5883 49.46 30.2653 48.0715 28.4965Z" fill="#108F9B"/>
<path opacity="0.42" d="M21.9978 28.4942C21.9978 28.4942 20.2716 30.5925 21.2256 32.2449C22.1797 33.8974 23.2699 30.6974 26.819 30.4844C29.9337 30.155 30.1239 28.5763 29.0535 27.3583C29.0535 27.3583 29.5305 28.1845 27.9944 28.7042C26.2994 28.9484 24.0535 29.5106 22.8354 30.581C21.6174 31.6515 21.3306 29.2466 21.9978 28.4942Z" fill="#108F9B"/>
<path opacity="0.42" d="M44.3392 23.3062C44.3392 23.3062 43.354 23.5079 43.1212 24.3767C42.8884 25.2455 46.2048 25.9014 47.7096 27.2358C48.7801 28.4538 49.6489 28.6866 49.6063 27.9768C49.6063 27.9768 49.5324 29.1209 48.5472 29.3225L48.1128 29.2062L48.2718 29.4815C48.2718 29.4815 47.0424 27.9881 43.726 27.3323C40.5261 26.2421 40.7901 23.5192 44.3392 23.3062Z" fill="#108F9B"/>
<path opacity="0.16" d="M41.7391 41.6996C39.6834 40.6832 39.354 37.5685 41.0377 34.7604C42.4459 32.1113 45.518 31.072 47.5737 32.0884C48.0081 32.2048 48.1671 32.4802 48.3261 32.7556C48.008 32.2048 47.6901 31.654 46.8212 31.4212C44.6065 30.1294 41.259 31.3275 39.4589 34.5701C37.4999 37.5372 38.1474 41.2028 40.3621 42.4947C42.5768 43.7865 45.6489 42.7473 47.4915 40.2145C45.6063 42.0374 43.5194 42.8751 41.7391 41.6996Z" fill="#A7A9CA"/>
<path d="M36.9094 46.6909C35.2143 46.9351 33.4766 46.4695 32.7668 46.5121L32.6078 46.2368L32.8832 46.0778C33.5931 46.0351 35.6062 46.3418 37.3012 46.0976C37.3012 46.0976 37.7356 46.2139 37.4602 46.3729C37.4602 46.3729 37.3438 46.8073 37.1848 46.5319C37.6192 46.6483 37.1848 46.5319 36.9094 46.6909Z" fill="#108F9B"/>
</svg>
